<?xml version="1.0" encoding="utf-8" standalone="no"?>
<!DOCTYPE svg PUBLIC "-//W3C//DTD SVG 1.1//EN"
  "http://www.w3.org/Graphics/SVG/1.1/DTD/svg11.dtd">
<svg xmlns:xlink="http://www.w3.org/1999/xlink" width="1125.12148pt" height="930.034455pt" viewBox="0 0 1125.12148 930.034455" xmlns="http://www.w3.org/2000/svg" version="1.1">
 <metadata>
  <rdf:RDF xmlns:dc="http://purl.org/dc/elements/1.1/" xmlns:cc="http://creativecommons.org/ns#" xmlns:rdf="http://www.w3.org/1999/02/22-rdf-syntax-ns#">
   <cc:Work>
    <dc:type rdf:resource="http://purl.org/dc/dcmitype/StillImage"/>
    <dc:date>2023-02-03T11:37:28.137824</dc:date>
    <dc:format>image/svg+xml</dc:format>
    <dc:creator>
     <cc:Agent>
      <dc:title>Matplotlib v3.6.2, https://matplotlib.org/</dc:title>
     </cc:Agent>
    </dc:creator>
   </cc:Work>
  </rdf:RDF>
 </metadata>
 <defs>
  <style type="text/css">*{stroke-linejoin: round; stroke-linecap: butt}</style>
 </defs>
 <g id="figure_1">
  <g id="patch_1">
   <path d="M 0 930.034455 
L 1125.12148 930.034455 
L 1125.12148 0 
L 0 0 
z
" style="fill: #ffffff"/>
  </g>
  <g id="axes_1">
   <g id="patch_2">
    <path d="M 86.044875 368.045455 
L 553.22548 368.045455 
L 553.22548 7.2 
L 86.044875 7.2 
z
" style="fill: #ffffff"/>
   </g>
   <g id="matplotlib.axis_1">
    <g id="xtick_1"/>
    <g id="xtick_2"/>
    <g id="xtick_3"/>
    <g id="xtick_4"/>
    <g id="text_1">
     <!-- (a) -->
     <g style="fill: #262626" transform="translate(308.636896 397.648892) scale(0.18 -0.18)">
      <defs>
       <path id="ArialMT-28" d="M 1497 -1347 
Q 1031 -759 709 28 
Q 388 816 388 1659 
Q 388 2403 628 3084 
Q 909 3875 1497 4659 
L 1900 4659 
Q 1522 4009 1400 3731 
Q 1209 3300 1100 2831 
Q 966 2247 966 1656 
Q 966 153 1900 -1347 
L 1497 -1347 
z
" transform="scale(0.015625)"/>
       <path id="ArialMT-61" d="M 2588 409 
Q 2275 144 1986 34 
Q 1697 -75 1366 -75 
Q 819 -75 525 192 
Q 231 459 231 875 
Q 231 1119 342 1320 
Q 453 1522 633 1644 
Q 813 1766 1038 1828 
Q 1203 1872 1538 1913 
Q 2219 1994 2541 2106 
Q 2544 2222 2544 2253 
Q 2544 2597 2384 2738 
Q 2169 2928 1744 2928 
Q 1347 2928 1158 2789 
Q 969 2650 878 2297 
L 328 2372 
Q 403 2725 575 2942 
Q 747 3159 1072 3276 
Q 1397 3394 1825 3394 
Q 2250 3394 2515 3294 
Q 2781 3194 2906 3042 
Q 3031 2891 3081 2659 
Q 3109 2516 3109 2141 
L 3109 1391 
Q 3109 606 3145 398 
Q 3181 191 3288 0 
L 2700 0 
Q 2613 175 2588 409 
z
M 2541 1666 
Q 2234 1541 1622 1453 
Q 1275 1403 1131 1340 
Q 988 1278 909 1158 
Q 831 1038 831 891 
Q 831 666 1001 516 
Q 1172 366 1500 366 
Q 1825 366 2078 508 
Q 2331 650 2450 897 
Q 2541 1088 2541 1459 
L 2541 1666 
z
" transform="scale(0.015625)"/>
       <path id="ArialMT-29" d="M 791 -1347 
L 388 -1347 
Q 1322 153 1322 1656 
Q 1322 2244 1188 2822 
Q 1081 3291 891 3722 
Q 769 4003 388 4659 
L 791 4659 
Q 1378 3875 1659 3084 
Q 1900 2403 1900 1659 
Q 1900 816 1576 28 
Q 1253 -759 791 -1347 
z
" transform="scale(0.015625)"/>
      </defs>
      <use xlink:href="#ArialMT-28"/>
      <use xlink:href="#ArialMT-61" x="33.300781"/>
      <use xlink:href="#ArialMT-29" x="88.916016"/>
     </g>
    </g>
   </g>
   <g id="matplotlib.axis_2">
    <g id="ytick_1">
     <g id="text_2">
      <!-- $\mathdefault{10^{1}}$ -->
      <g style="fill: #262626" transform="translate(47.639875 322.672817) scale(0.165 -0.165)">
       <defs>
        <path id="ArialMT-31" d="M 2384 0 
L 1822 0 
L 1822 3584 
Q 1619 3391 1289 3197 
Q 959 3003 697 2906 
L 697 3450 
Q 1169 3672 1522 3987 
Q 1875 4303 2022 4600 
L 2384 4600 
L 2384 0 
z
" transform="scale(0.015625)"/>
        <path id="ArialMT-30" d="M 266 2259 
Q 266 3072 433 3567 
Q 600 4063 929 4331 
Q 1259 4600 1759 4600 
Q 2128 4600 2406 4451 
Q 2684 4303 2865 4023 
Q 3047 3744 3150 3342 
Q 3253 2941 3253 2259 
Q 3253 1453 3087 958 
Q 2922 463 2592 192 
Q 2263 -78 1759 -78 
Q 1097 -78 719 397 
Q 266 969 266 2259 
z
M 844 2259 
Q 844 1131 1108 757 
Q 1372 384 1759 384 
Q 2147 384 2411 759 
Q 2675 1134 2675 2259 
Q 2675 3391 2411 3762 
Q 2147 4134 1753 4134 
Q 1366 4134 1134 3806 
Q 844 3388 844 2259 
z
" transform="scale(0.015625)"/>
       </defs>
       <use xlink:href="#ArialMT-31" transform="translate(0 0.99375)"/>
       <use xlink:href="#ArialMT-30" transform="translate(55.615234 0.99375)"/>
       <use xlink:href="#ArialMT-31" transform="translate(112.972813 70.6875) scale(0.7)"/>
      </g>
     </g>
    </g>
    <g id="ytick_2">
     <g id="text_3">
      <!-- $\mathdefault{10^{2}}$ -->
      <g style="fill: #262626" transform="translate(47.639875 177.264795) scale(0.165 -0.165)">
       <defs>
        <path id="ArialMT-32" d="M 3222 541 
L 3222 0 
L 194 0 
Q 188 203 259 391 
Q 375 700 629 1000 
Q 884 1300 1366 1694 
Q 2113 2306 2375 2664 
Q 2638 3022 2638 3341 
Q 2638 3675 2398 3904 
Q 2159 4134 1775 4134 
Q 1369 4134 1125 3890 
Q 881 3647 878 3216 
L 300 3275 
Q 359 3922 746 4261 
Q 1134 4600 1788 4600 
Q 2447 4600 2831 4234 
Q 3216 3869 3216 3328 
Q 3216 3053 3103 2787 
Q 2991 2522 2730 2228 
Q 2469 1934 1863 1422 
Q 1356 997 1212 845 
Q 1069 694 975 541 
L 3222 541 
z
" transform="scale(0.015625)"/>
       </defs>
       <use xlink:href="#ArialMT-31" transform="translate(0 0.99375)"/>
       <use xlink:href="#ArialMT-30" transform="translate(55.615234 0.99375)"/>
       <use xlink:href="#ArialMT-32" transform="translate(112.972813 70.6875) scale(0.7)"/>
      </g>
     </g>
    </g>
    <g id="ytick_3">
     <g id="text_4">
      <!-- $\mathdefault{10^{3}}$ -->
      <g style="fill: #262626" transform="translate(47.639875 31.856772) scale(0.165 -0.165)">
       <defs>
        <path id="ArialMT-33" d="M 269 1209 
L 831 1284 
Q 928 806 1161 595 
Q 1394 384 1728 384 
Q 2125 384 2398 659 
Q 2672 934 2672 1341 
Q 2672 1728 2419 1979 
Q 2166 2231 1775 2231 
Q 1616 2231 1378 2169 
L 1441 2663 
Q 1497 2656 1531 2656 
Q 1891 2656 2178 2843 
Q 2466 3031 2466 3422 
Q 2466 3731 2256 3934 
Q 2047 4138 1716 4138 
Q 1388 4138 1169 3931 
Q 950 3725 888 3313 
L 325 3413 
Q 428 3978 793 4289 
Q 1159 4600 1703 4600 
Q 2078 4600 2393 4439 
Q 2709 4278 2876 4000 
Q 3044 3722 3044 3409 
Q 3044 3113 2884 2869 
Q 2725 2625 2413 2481 
Q 2819 2388 3044 2092 
Q 3269 1797 3269 1353 
Q 3269 753 2831 336 
Q 2394 -81 1725 -81 
Q 1122 -81 723 278 
Q 325 638 269 1209 
z
" transform="scale(0.015625)"/>
       </defs>
       <use xlink:href="#ArialMT-31" transform="translate(0 0.99375)"/>
       <use xlink:href="#ArialMT-30" transform="translate(55.615234 0.99375)"/>
       <use xlink:href="#ArialMT-33" transform="translate(112.972813 70.6875) scale(0.7)"/>
      </g>
     </g>
    </g>
    <g id="ytick_4"/>
    <g id="ytick_5"/>
    <g id="ytick_6"/>
    <g id="ytick_7"/>
    <g id="ytick_8"/>
    <g id="ytick_9"/>
    <g id="ytick_10"/>
    <g id="ytick_11"/>
    <g id="ytick_12"/>
    <g id="ytick_13"/>
    <g id="ytick_14"/>
    <g id="ytick_15"/>
    <g id="ytick_16"/>
    <g id="ytick_17"/>
    <g id="ytick_18"/>
    <g id="ytick_19"/>
    <g id="ytick_20"/>
    <g id="ytick_21"/>
    <g id="ytick_22"/>
    <g id="ytick_23"/>
    <g id="ytick_24"/>
    <g id="text_5">
     <!-- Latency -->
     <g style="fill: #262626" transform="translate(20.813063 219.142415) rotate(-90) scale(0.18 -0.18)">
      <defs>
       <path id="ArialMT-4c" d="M 469 0 
L 469 4581 
L 1075 4581 
L 1075 541 
L 3331 541 
L 3331 0 
L 469 0 
z
" transform="scale(0.015625)"/>
       <path id="ArialMT-74" d="M 1650 503 
L 1731 6 
Q 1494 -44 1306 -44 
Q 1000 -44 831 53 
Q 663 150 594 308 
Q 525 466 525 972 
L 525 2881 
L 113 2881 
L 113 3319 
L 525 3319 
L 525 4141 
L 1084 4478 
L 1084 3319 
L 1650 3319 
L 1650 2881 
L 1084 2881 
L 1084 941 
Q 1084 700 1114 631 
Q 1144 563 1211 522 
Q 1278 481 1403 481 
Q 1497 481 1650 503 
z
" transform="scale(0.015625)"/>
       <path id="ArialMT-65" d="M 2694 1069 
L 3275 997 
Q 3138 488 2766 206 
Q 2394 -75 1816 -75 
Q 1088 -75 661 373 
Q 234 822 234 1631 
Q 234 2469 665 2931 
Q 1097 3394 1784 3394 
Q 2450 3394 2872 2941 
Q 3294 2488 3294 1666 
Q 3294 1616 3291 1516 
L 816 1516 
Q 847 969 1125 678 
Q 1403 388 1819 388 
Q 2128 388 2347 550 
Q 2566 713 2694 1069 
z
M 847 1978 
L 2700 1978 
Q 2663 2397 2488 2606 
Q 2219 2931 1791 2931 
Q 1403 2931 1139 2672 
Q 875 2413 847 1978 
z
" transform="scale(0.015625)"/>
       <path id="ArialMT-6e" d="M 422 0 
L 422 3319 
L 928 3319 
L 928 2847 
Q 1294 3394 1984 3394 
Q 2284 3394 2536 3286 
Q 2788 3178 2913 3003 
Q 3038 2828 3088 2588 
Q 3119 2431 3119 2041 
L 3119 0 
L 2556 0 
L 2556 2019 
Q 2556 2363 2490 2533 
Q 2425 2703 2258 2804 
Q 2091 2906 1866 2906 
Q 1506 2906 1245 2678 
Q 984 2450 984 1813 
L 984 0 
L 422 0 
z
" transform="scale(0.015625)"/>
       <path id="ArialMT-63" d="M 2588 1216 
L 3141 1144 
Q 3050 572 2676 248 
Q 2303 -75 1759 -75 
Q 1078 -75 664 370 
Q 250 816 250 1647 
Q 250 2184 428 2587 
Q 606 2991 970 3192 
Q 1334 3394 1763 3394 
Q 2303 3394 2647 3120 
Q 2991 2847 3088 2344 
L 2541 2259 
Q 2463 2594 2264 2762 
Q 2066 2931 1784 2931 
Q 1359 2931 1093 2626 
Q 828 2322 828 1663 
Q 828 994 1084 691 
Q 1341 388 1753 388 
Q 2084 388 2306 591 
Q 2528 794 2588 1216 
z
" transform="scale(0.015625)"/>
       <path id="ArialMT-79" d="M 397 -1278 
L 334 -750 
Q 519 -800 656 -800 
Q 844 -800 956 -737 
Q 1069 -675 1141 -563 
Q 1194 -478 1313 -144 
Q 1328 -97 1363 -6 
L 103 3319 
L 709 3319 
L 1400 1397 
Q 1534 1031 1641 628 
Q 1738 1016 1872 1384 
L 2581 3319 
L 3144 3319 
L 1881 -56 
Q 1678 -603 1566 -809 
Q 1416 -1088 1222 -1217 
Q 1028 -1347 759 -1347 
Q 597 -1347 397 -1278 
z
" transform="scale(0.015625)"/>
      </defs>
      <use xlink:href="#ArialMT-4c"/>
      <use xlink:href="#ArialMT-61" x="55.615234"/>
      <use xlink:href="#ArialMT-74" x="111.230469"/>
      <use xlink:href="#ArialMT-65" x="139.013672"/>
      <use xlink:href="#ArialMT-6e" x="194.628906"/>
      <use xlink:href="#ArialMT-63" x="250.244141"/>
      <use xlink:href="#ArialMT-79" x="300.244141"/>
     </g>
     <!-- [ms] -->
     <g style="fill: #262626" transform="translate(40.062375 204.620071) rotate(-90) scale(0.18 -0.18)">
      <defs>
       <path id="ArialMT-5b" d="M 434 -1272 
L 434 4581 
L 1675 4581 
L 1675 4116 
L 997 4116 
L 997 -806 
L 1675 -806 
L 1675 -1272 
L 434 -1272 
z
" transform="scale(0.015625)"/>
       <path id="ArialMT-6d" d="M 422 0 
L 422 3319 
L 925 3319 
L 925 2853 
Q 1081 3097 1340 3245 
Q 1600 3394 1931 3394 
Q 2300 3394 2536 3241 
Q 2772 3088 2869 2813 
Q 3263 3394 3894 3394 
Q 4388 3394 4653 3120 
Q 4919 2847 4919 2278 
L 4919 0 
L 4359 0 
L 4359 2091 
Q 4359 2428 4304 2576 
Q 4250 2725 4106 2815 
Q 3963 2906 3769 2906 
Q 3419 2906 3187 2673 
Q 2956 2441 2956 1928 
L 2956 0 
L 2394 0 
L 2394 2156 
Q 2394 2531 2256 2718 
Q 2119 2906 1806 2906 
Q 1569 2906 1367 2781 
Q 1166 2656 1075 2415 
Q 984 2175 984 1722 
L 984 0 
L 422 0 
z
" transform="scale(0.015625)"/>
       <path id="ArialMT-73" d="M 197 991 
L 753 1078 
Q 800 744 1014 566 
Q 1228 388 1613 388 
Q 2000 388 2187 545 
Q 2375 703 2375 916 
Q 2375 1106 2209 1216 
Q 2094 1291 1634 1406 
Q 1016 1563 777 1677 
Q 538 1791 414 1992 
Q 291 2194 291 2438 
Q 291 2659 392 2848 
Q 494 3038 669 3163 
Q 800 3259 1026 3326 
Q 1253 3394 1513 3394 
Q 1903 3394 2198 3281 
Q 2494 3169 2634 2976 
Q 2775 2784 2828 2463 
L 2278 2388 
Q 2241 2644 2061 2787 
Q 1881 2931 1553 2931 
Q 1166 2931 1000 2803 
Q 834 2675 834 2503 
Q 834 2394 903 2306 
Q 972 2216 1119 2156 
Q 1203 2125 1616 2013 
Q 2213 1853 2448 1751 
Q 2684 1650 2818 1456 
Q 2953 1263 2953 975 
Q 2953 694 2789 445 
Q 2625 197 2315 61 
Q 2006 -75 1616 -75 
Q 969 -75 630 194 
Q 291 463 197 991 
z
" transform="scale(0.015625)"/>
       <path id="ArialMT-5d" d="M 1363 -1272 
L 122 -1272 
L 122 -806 
L 800 -806 
L 800 4116 
L 122 4116 
L 122 4581 
L 1363 4581 
L 1363 -1272 
z
" transform="scale(0.015625)"/>
      </defs>
      <use xlink:href="#ArialMT-5b"/>
      <use xlink:href="#ArialMT-6d" x="27.783203"/>
      <use xlink:href="#ArialMT-73" x="111.083984"/>
      <use xlink:href="#ArialMT-5d" x="161.083984"/>
     </g>
    </g>
   </g>
   <g id="patch_3">
    <path d="M 97.72439 145867.595219 
L 191.160511 145867.595219 
L 191.160511 351.643388 
L 97.72439 351.643388 
z
" clip-path="url(#p4318dedb98)" style="fill: #472345; stroke: #ffffff; stroke-width: 1.5; stroke-linejoin: miter"/>
   </g>
   <g id="patch_4">
    <path d="M 214.519541 145867.595219 
L 307.955662 145867.595219 
L 307.955662 88.041796 
L 214.519541 88.041796 
z
" clip-path="url(#p4318dedb98)" style="fill: #902b5c; stroke: #ffffff; stroke-width: 1.5; stroke-linejoin: miter"/>
   </g>
   <g id="patch_5">
    <path d="M 331.314693 145867.595219 
L 424.750814 145867.595219 
L 424.750814 23.602066 
L 331.314693 23.602066 
z
" clip-path="url(#p4318dedb98)" style="fill: #d35454; stroke: #ffffff; stroke-width: 1.5; stroke-linejoin: miter"/>
   </g>
   <g id="patch_6">
    <path d="M 448.109844 145867.595219 
L 541.545965 145867.595219 
L 541.545965 62.261054 
L 448.109844 62.261054 
z
" clip-path="url(#p4318dedb98)" style="fill: #e5a283; stroke: #ffffff; stroke-width: 1.5; stroke-linejoin: miter"/>
   </g>
   <g id="line2d_1">
    <path clip-path="url(#p4318dedb98)" style="fill: none; stroke: #1a1a1a; stroke-width: 2.25; stroke-linecap: round"/>
   </g>
   <g id="patch_7">
    <path d="M 86.044875 368.045455 
L 86.044875 7.2 
" style="fill: none; stroke: #262626; stroke-width: 1.875; stroke-linejoin: miter; stroke-linecap: square"/>
   </g>
   <g id="patch_8">
    <path d="M 553.22548 368.045455 
L 553.22548 7.2 
" style="fill: none; stroke: #262626; stroke-width: 1.875; stroke-linejoin: miter; stroke-linecap: square"/>
   </g>
   <g id="patch_9">
    <path d="M 86.044875 368.045455 
L 553.22548 368.045455 
" style="fill: none; stroke: #262626; stroke-width: 1.875; stroke-linejoin: miter; stroke-linecap: square"/>
   </g>
   <g id="patch_10">
    <path d="M 86.044875 7.2 
L 553.22548 7.2 
" style="fill: none; stroke: #262626; stroke-width: 1.875; stroke-linejoin: miter; stroke-linecap: square"/>
   </g>
   <g id="text_6">
    <!-- 5.5 -->
    <g style="fill: #262626" transform="translate(133.322451 348.463388) scale(0.16 -0.16)">
     <defs>
      <path id="ArialMT-35" d="M 266 1200 
L 856 1250 
Q 922 819 1161 601 
Q 1400 384 1738 384 
Q 2144 384 2425 690 
Q 2706 997 2706 1503 
Q 2706 1984 2436 2262 
Q 2166 2541 1728 2541 
Q 1456 2541 1237 2417 
Q 1019 2294 894 2097 
L 366 2166 
L 809 4519 
L 3088 4519 
L 3088 3981 
L 1259 3981 
L 1013 2750 
Q 1425 3038 1878 3038 
Q 2478 3038 2890 2622 
Q 3303 2206 3303 1553 
Q 3303 931 2941 478 
Q 2500 -78 1738 -78 
Q 1113 -78 717 272 
Q 322 622 266 1200 
z
" transform="scale(0.015625)"/>
      <path id="ArialMT-2e" d="M 581 0 
L 581 641 
L 1222 641 
L 1222 0 
L 581 0 
z
" transform="scale(0.015625)"/>
     </defs>
     <use xlink:href="#ArialMT-35"/>
     <use xlink:href="#ArialMT-2e" x="55.615234"/>
     <use xlink:href="#ArialMT-35" x="83.398438"/>
    </g>
   </g>
   <g id="text_7">
    <!-- 359 -->
    <g style="fill: #262626" transform="translate(247.891352 84.861796) scale(0.16 -0.16)">
     <defs>
      <path id="ArialMT-39" d="M 350 1059 
L 891 1109 
Q 959 728 1153 556 
Q 1347 384 1650 384 
Q 1909 384 2104 503 
Q 2300 622 2425 820 
Q 2550 1019 2634 1356 
Q 2719 1694 2719 2044 
Q 2719 2081 2716 2156 
Q 2547 1888 2255 1720 
Q 1963 1553 1622 1553 
Q 1053 1553 659 1965 
Q 266 2378 266 3053 
Q 266 3750 677 4175 
Q 1088 4600 1706 4600 
Q 2153 4600 2523 4359 
Q 2894 4119 3086 3673 
Q 3278 3228 3278 2384 
Q 3278 1506 3087 986 
Q 2897 466 2520 194 
Q 2144 -78 1638 -78 
Q 1100 -78 759 220 
Q 419 519 350 1059 
z
M 2653 3081 
Q 2653 3566 2395 3850 
Q 2138 4134 1775 4134 
Q 1400 4134 1122 3828 
Q 844 3522 844 3034 
Q 844 2597 1108 2323 
Q 1372 2050 1759 2050 
Q 2150 2050 2401 2323 
Q 2653 2597 2653 3081 
z
" transform="scale(0.015625)"/>
     </defs>
     <use xlink:href="#ArialMT-33"/>
     <use xlink:href="#ArialMT-35" x="55.615234"/>
     <use xlink:href="#ArialMT-39" x="111.230469"/>
    </g>
   </g>
   <g id="text_8">
    <!-- 996 -->
    <g style="fill: #262626" transform="translate(364.686503 20.422066) scale(0.16 -0.16)">
     <defs>
      <path id="ArialMT-36" d="M 3184 3459 
L 2625 3416 
Q 2550 3747 2413 3897 
Q 2184 4138 1850 4138 
Q 1581 4138 1378 3988 
Q 1113 3794 959 3422 
Q 806 3050 800 2363 
Q 1003 2672 1297 2822 
Q 1591 2972 1913 2972 
Q 2475 2972 2870 2558 
Q 3266 2144 3266 1488 
Q 3266 1056 3080 686 
Q 2894 316 2569 119 
Q 2244 -78 1831 -78 
Q 1128 -78 684 439 
Q 241 956 241 2144 
Q 241 3472 731 4075 
Q 1159 4600 1884 4600 
Q 2425 4600 2770 4297 
Q 3116 3994 3184 3459 
z
M 888 1484 
Q 888 1194 1011 928 
Q 1134 663 1356 523 
Q 1578 384 1822 384 
Q 2178 384 2434 671 
Q 2691 959 2691 1453 
Q 2691 1928 2437 2201 
Q 2184 2475 1800 2475 
Q 1419 2475 1153 2201 
Q 888 1928 888 1484 
z
" transform="scale(0.015625)"/>
     </defs>
     <use xlink:href="#ArialMT-39"/>
     <use xlink:href="#ArialMT-39" x="55.615234"/>
     <use xlink:href="#ArialMT-36" x="111.230469"/>
    </g>
   </g>
   <g id="text_9">
    <!-- 540 -->
    <g style="fill: #262626" transform="translate(481.481654 59.081054) scale(0.16 -0.16)">
     <defs>
      <path id="ArialMT-34" d="M 2069 0 
L 2069 1097 
L 81 1097 
L 81 1613 
L 2172 4581 
L 2631 4581 
L 2631 1613 
L 3250 1613 
L 3250 1097 
L 2631 1097 
L 2631 0 
L 2069 0 
z
M 2069 1613 
L 2069 3678 
L 634 1613 
L 2069 1613 
z
" transform="scale(0.015625)"/>
     </defs>
     <use xlink:href="#ArialMT-35"/>
     <use xlink:href="#ArialMT-34" x="55.615234"/>
     <use xlink:href="#ArialMT-30" x="111.230469"/>
    </g>
   </g>
  </g>
  <g id="axes_2">
   <g id="patch_11">
    <path d="M 650.740875 368.045455 
L 1117.92148 368.045455 
L 1117.92148 7.2 
L 650.740875 7.2 
z
" style="fill: #ffffff"/>
   </g>
   <g id="matplotlib.axis_3">
    <g id="xtick_5"/>
    <g id="xtick_6"/>
    <g id="xtick_7"/>
    <g id="xtick_8"/>
    <g id="text_10">
     <!-- (b) -->
     <g style="fill: #262626" transform="translate(873.332896 397.648892) scale(0.18 -0.18)">
      <defs>
       <path id="ArialMT-62" d="M 941 0 
L 419 0 
L 419 4581 
L 981 4581 
L 981 2947 
Q 1338 3394 1891 3394 
Q 2197 3394 2470 3270 
Q 2744 3147 2920 2923 
Q 3097 2700 3197 2384 
Q 3297 2069 3297 1709 
Q 3297 856 2875 390 
Q 2453 -75 1863 -75 
Q 1275 -75 941 416 
L 941 0 
z
M 934 1684 
Q 934 1088 1097 822 
Q 1363 388 1816 388 
Q 2184 388 2453 708 
Q 2722 1028 2722 1663 
Q 2722 2313 2464 2622 
Q 2206 2931 1841 2931 
Q 1472 2931 1203 2611 
Q 934 2291 934 1684 
z
" transform="scale(0.015625)"/>
      </defs>
      <use xlink:href="#ArialMT-28"/>
      <use xlink:href="#ArialMT-62" x="33.300781"/>
      <use xlink:href="#ArialMT-29" x="88.916016"/>
     </g>
    </g>
   </g>
   <g id="matplotlib.axis_4">
    <g id="ytick_25">
     <g id="text_11">
      <!-- $\mathdefault{10^{0}}$ -->
      <g style="fill: #262626" transform="translate(612.335875 284.559111) scale(0.165 -0.165)">
       <use xlink:href="#ArialMT-31" transform="translate(0 0.99375)"/>
       <use xlink:href="#ArialMT-30" transform="translate(55.615234 0.99375)"/>
       <use xlink:href="#ArialMT-30" transform="translate(112.972813 70.6875) scale(0.7)"/>
      </g>
     </g>
    </g>
    <g id="ytick_26">
     <g id="text_12">
      <!-- $\mathdefault{10^{1}}$ -->
      <g style="fill: #262626" transform="translate(612.335875 160.087332) scale(0.165 -0.165)">
       <use xlink:href="#ArialMT-31" transform="translate(0 0.99375)"/>
       <use xlink:href="#ArialMT-30" transform="translate(55.615234 0.99375)"/>
       <use xlink:href="#ArialMT-31" transform="translate(112.972813 70.6875) scale(0.7)"/>
      </g>
     </g>
    </g>
    <g id="ytick_27">
     <g id="text_13">
      <!-- $\mathdefault{10^{2}}$ -->
      <g style="fill: #262626" transform="translate(612.335875 35.615554) scale(0.165 -0.165)">
       <use xlink:href="#ArialMT-31" transform="translate(0 0.99375)"/>
       <use xlink:href="#ArialMT-30" transform="translate(55.615234 0.99375)"/>
       <use xlink:href="#ArialMT-32" transform="translate(112.972813 70.6875) scale(0.7)"/>
      </g>
     </g>
    </g>
    <g id="ytick_28"/>
    <g id="ytick_29"/>
    <g id="ytick_30"/>
    <g id="ytick_31"/>
    <g id="ytick_32"/>
    <g id="ytick_33"/>
    <g id="ytick_34"/>
    <g id="ytick_35"/>
    <g id="ytick_36"/>
    <g id="ytick_37"/>
    <g id="ytick_38"/>
    <g id="ytick_39"/>
    <g id="ytick_40"/>
    <g id="ytick_41"/>
    <g id="ytick_42"/>
    <g id="ytick_43"/>
    <g id="ytick_44"/>
    <g id="ytick_45"/>
    <g id="ytick_46"/>
    <g id="ytick_47"/>
    <g id="ytick_48"/>
    <g id="ytick_49"/>
    <g id="ytick_50"/>
    <g id="ytick_51"/>
    <g id="text_14">
     <!-- Inference Efficiency -->
     <g style="fill: #262626" transform="translate(585.034875 266.000071) rotate(-90) scale(0.18 -0.18)">
      <defs>
       <path id="ArialMT-49" d="M 597 0 
L 597 4581 
L 1203 4581 
L 1203 0 
L 597 0 
z
" transform="scale(0.015625)"/>
       <path id="ArialMT-66" d="M 556 0 
L 556 2881 
L 59 2881 
L 59 3319 
L 556 3319 
L 556 3672 
Q 556 4006 616 4169 
Q 697 4388 901 4523 
Q 1106 4659 1475 4659 
Q 1713 4659 2000 4603 
L 1916 4113 
Q 1741 4144 1584 4144 
Q 1328 4144 1222 4034 
Q 1116 3925 1116 3625 
L 1116 3319 
L 1763 3319 
L 1763 2881 
L 1116 2881 
L 1116 0 
L 556 0 
z
" transform="scale(0.015625)"/>
       <path id="ArialMT-72" d="M 416 0 
L 416 3319 
L 922 3319 
L 922 2816 
Q 1116 3169 1280 3281 
Q 1444 3394 1641 3394 
Q 1925 3394 2219 3213 
L 2025 2691 
Q 1819 2813 1613 2813 
Q 1428 2813 1281 2702 
Q 1134 2591 1072 2394 
Q 978 2094 978 1738 
L 978 0 
L 416 0 
z
" transform="scale(0.015625)"/>
       <path id="ArialMT-20" transform="scale(0.015625)"/>
       <path id="ArialMT-45" d="M 506 0 
L 506 4581 
L 3819 4581 
L 3819 4041 
L 1113 4041 
L 1113 2638 
L 3647 2638 
L 3647 2100 
L 1113 2100 
L 1113 541 
L 3925 541 
L 3925 0 
L 506 0 
z
" transform="scale(0.015625)"/>
       <path id="ArialMT-69" d="M 425 3934 
L 425 4581 
L 988 4581 
L 988 3934 
L 425 3934 
z
M 425 0 
L 425 3319 
L 988 3319 
L 988 0 
L 425 0 
z
" transform="scale(0.015625)"/>
      </defs>
      <use xlink:href="#ArialMT-49"/>
      <use xlink:href="#ArialMT-6e" x="27.783203"/>
      <use xlink:href="#ArialMT-66" x="83.398438"/>
      <use xlink:href="#ArialMT-65" x="111.181641"/>
      <use xlink:href="#ArialMT-72" x="166.796875"/>
      <use xlink:href="#ArialMT-65" x="200.097656"/>
      <use xlink:href="#ArialMT-6e" x="255.712891"/>
      <use xlink:href="#ArialMT-63" x="311.328125"/>
      <use xlink:href="#ArialMT-65" x="361.328125"/>
      <use xlink:href="#ArialMT-20" x="416.943359"/>
      <use xlink:href="#ArialMT-45" x="444.726562"/>
      <use xlink:href="#ArialMT-66" x="511.425781"/>
      <use xlink:href="#ArialMT-66" x="537.458984"/>
      <use xlink:href="#ArialMT-69" x="565.242188"/>
      <use xlink:href="#ArialMT-63" x="587.458984"/>
      <use xlink:href="#ArialMT-69" x="637.458984"/>
      <use xlink:href="#ArialMT-65" x="659.675781"/>
      <use xlink:href="#ArialMT-6e" x="715.291016"/>
      <use xlink:href="#ArialMT-63" x="770.90625"/>
      <use xlink:href="#ArialMT-79" x="820.90625"/>
     </g>
     <!-- [MAC/Cycles] -->
     <g style="fill: #262626" transform="translate(604.547438 242.127571) rotate(-90) scale(0.18 -0.18)">
      <defs>
       <path id="ArialMT-4d" d="M 475 0 
L 475 4581 
L 1388 4581 
L 2472 1338 
Q 2622 884 2691 659 
Q 2769 909 2934 1394 
L 4031 4581 
L 4847 4581 
L 4847 0 
L 4263 0 
L 4263 3834 
L 2931 0 
L 2384 0 
L 1059 3900 
L 1059 0 
L 475 0 
z
" transform="scale(0.015625)"/>
       <path id="ArialMT-41" d="M -9 0 
L 1750 4581 
L 2403 4581 
L 4278 0 
L 3588 0 
L 3053 1388 
L 1138 1388 
L 634 0 
L -9 0 
z
M 1313 1881 
L 2866 1881 
L 2388 3150 
Q 2169 3728 2063 4100 
Q 1975 3659 1816 3225 
L 1313 1881 
z
" transform="scale(0.015625)"/>
       <path id="ArialMT-43" d="M 3763 1606 
L 4369 1453 
Q 4178 706 3683 314 
Q 3188 -78 2472 -78 
Q 1731 -78 1267 223 
Q 803 525 561 1097 
Q 319 1669 319 2325 
Q 319 3041 592 3573 
Q 866 4106 1370 4382 
Q 1875 4659 2481 4659 
Q 3169 4659 3637 4309 
Q 4106 3959 4291 3325 
L 3694 3184 
Q 3534 3684 3231 3912 
Q 2928 4141 2469 4141 
Q 1941 4141 1586 3887 
Q 1231 3634 1087 3207 
Q 944 2781 944 2328 
Q 944 1744 1114 1308 
Q 1284 872 1643 656 
Q 2003 441 2422 441 
Q 2931 441 3284 734 
Q 3638 1028 3763 1606 
z
" transform="scale(0.015625)"/>
       <path id="ArialMT-2f" d="M 0 -78 
L 1328 4659 
L 1778 4659 
L 453 -78 
L 0 -78 
z
" transform="scale(0.015625)"/>
       <path id="ArialMT-6c" d="M 409 0 
L 409 4581 
L 972 4581 
L 972 0 
L 409 0 
z
" transform="scale(0.015625)"/>
      </defs>
      <use xlink:href="#ArialMT-5b"/>
      <use xlink:href="#ArialMT-4d" x="27.783203"/>
      <use xlink:href="#ArialMT-41" x="111.083984"/>
      <use xlink:href="#ArialMT-43" x="177.783203"/>
      <use xlink:href="#ArialMT-2f" x="250"/>
      <use xlink:href="#ArialMT-43" x="277.783203"/>
      <use xlink:href="#ArialMT-79" x="350"/>
      <use xlink:href="#ArialMT-63" x="400"/>
      <use xlink:href="#ArialMT-6c" x="450"/>
      <use xlink:href="#ArialMT-65" x="472.216797"/>
      <use xlink:href="#ArialMT-73" x="527.832031"/>
      <use xlink:href="#ArialMT-5d" x="577.832031"/>
     </g>
    </g>
   </g>
   <g id="patch_12">
    <path d="M 662.42039 124747.829655 
L 755.856511 124747.829655 
L 755.856511 23.602066 
L 662.42039 23.602066 
z
" clip-path="url(#p7505e4e684)" style="fill: #472345; stroke: #ffffff; stroke-width: 1.5; stroke-linejoin: miter"/>
   </g>
   <g id="patch_13">
    <path d="M 779.215541 124747.829655 
L 872.651662 124747.829655 
L 872.651662 321.926148 
L 779.215541 321.926148 
z
" clip-path="url(#p7505e4e684)" style="fill: #902b5c; stroke: #ffffff; stroke-width: 1.5; stroke-linejoin: miter"/>
   </g>
   <g id="patch_14">
    <path d="M 896.010693 124747.829655 
L 989.446814 124747.829655 
L 989.446814 351.643388 
L 896.010693 351.643388 
z
" clip-path="url(#p7505e4e684)" style="fill: #d35454; stroke: #ffffff; stroke-width: 1.5; stroke-linejoin: miter"/>
   </g>
   <g id="patch_15">
    <path d="M 1012.805844 124747.829655 
L 1106.241965 124747.829655 
L 1106.241965 344.097737 
L 1012.805844 344.097737 
z
" clip-path="url(#p7505e4e684)" style="fill: #e5a283; stroke: #ffffff; stroke-width: 1.5; stroke-linejoin: miter"/>
   </g>
   <g id="line2d_2">
    <path clip-path="url(#p7505e4e684)" style="fill: none; stroke: #1a1a1a; stroke-width: 2.25; stroke-linecap: round"/>
   </g>
   <g id="patch_16">
    <path d="M 650.740875 368.045455 
L 650.740875 7.2 
" style="fill: none; stroke: #262626; stroke-width: 1.875; stroke-linejoin: miter; stroke-linecap: square"/>
   </g>
   <g id="patch_17">
    <path d="M 1117.92148 368.045455 
L 1117.92148 7.2 
" style="fill: none; stroke: #262626; stroke-width: 1.875; stroke-linejoin: miter; stroke-linecap: square"/>
   </g>
   <g id="patch_18">
    <path d="M 650.740875 368.045455 
L 1117.92148 368.045455 
" style="fill: none; stroke: #262626; stroke-width: 1.875; stroke-linejoin: miter; stroke-linecap: square"/>
   </g>
   <g id="patch_19">
    <path d="M 650.740875 7.2 
L 1117.92148 7.2 
" style="fill: none; stroke: #262626; stroke-width: 1.875; stroke-linejoin: miter; stroke-linecap: square"/>
   </g>
   <g id="text_15">
    <!-- 107 -->
    <g style="fill: #262626" transform="translate(695.792201 20.422066) scale(0.16 -0.16)">
     <defs>
      <path id="ArialMT-37" d="M 303 3981 
L 303 4522 
L 3269 4522 
L 3269 4084 
Q 2831 3619 2401 2847 
Q 1972 2075 1738 1259 
Q 1569 684 1522 0 
L 944 0 
Q 953 541 1156 1306 
Q 1359 2072 1739 2783 
Q 2119 3494 2547 3981 
L 303 3981 
z
" transform="scale(0.015625)"/>
     </defs>
     <use xlink:href="#ArialMT-31"/>
     <use xlink:href="#ArialMT-30" x="55.615234"/>
     <use xlink:href="#ArialMT-37" x="111.230469"/>
    </g>
   </g>
   <g id="text_16">
    <!-- 0.43 -->
    <g style="fill: #262626" transform="translate(810.364852 318.746148) scale(0.16 -0.16)">
     <use xlink:href="#ArialMT-30"/>
     <use xlink:href="#ArialMT-2e" x="55.615234"/>
     <use xlink:href="#ArialMT-34" x="83.398438"/>
     <use xlink:href="#ArialMT-33" x="139.013672"/>
    </g>
   </g>
   <g id="text_17">
    <!-- 0.25 -->
    <g style="fill: #262626" transform="translate(927.160003 348.463388) scale(0.16 -0.16)">
     <use xlink:href="#ArialMT-30"/>
     <use xlink:href="#ArialMT-2e" x="55.615234"/>
     <use xlink:href="#ArialMT-32" x="83.398438"/>
     <use xlink:href="#ArialMT-35" x="139.013672"/>
    </g>
   </g>
   <g id="text_18">
    <!-- 0.28 -->
    <g style="fill: #262626" transform="translate(1043.955154 340.917737) scale(0.16 -0.16)">
     <defs>
      <path id="ArialMT-38" d="M 1131 2484 
Q 781 2613 612 2850 
Q 444 3088 444 3419 
Q 444 3919 803 4259 
Q 1163 4600 1759 4600 
Q 2359 4600 2725 4251 
Q 3091 3903 3091 3403 
Q 3091 3084 2923 2848 
Q 2756 2613 2416 2484 
Q 2838 2347 3058 2040 
Q 3278 1734 3278 1309 
Q 3278 722 2862 322 
Q 2447 -78 1769 -78 
Q 1091 -78 675 323 
Q 259 725 259 1325 
Q 259 1772 486 2073 
Q 713 2375 1131 2484 
z
M 1019 3438 
Q 1019 3113 1228 2906 
Q 1438 2700 1772 2700 
Q 2097 2700 2305 2904 
Q 2513 3109 2513 3406 
Q 2513 3716 2298 3927 
Q 2084 4138 1766 4138 
Q 1444 4138 1231 3931 
Q 1019 3725 1019 3438 
z
M 838 1322 
Q 838 1081 952 856 
Q 1066 631 1291 507 
Q 1516 384 1775 384 
Q 2178 384 2440 643 
Q 2703 903 2703 1303 
Q 2703 1709 2433 1975 
Q 2163 2241 1756 2241 
Q 1359 2241 1098 1978 
Q 838 1716 838 1322 
z
" transform="scale(0.015625)"/>
     </defs>
     <use xlink:href="#ArialMT-30"/>
     <use xlink:href="#ArialMT-2e" x="55.615234"/>
     <use xlink:href="#ArialMT-32" x="83.398438"/>
     <use xlink:href="#ArialMT-38" x="139.013672"/>
    </g>
   </g>
  </g>
  <g id="axes_3">
   <g id="patch_20">
    <path d="M 86.044875 798.605455 
L 553.22548 798.605455 
L 553.22548 437.76 
L 86.044875 437.76 
z
" style="fill: #ffffff"/>
   </g>
   <g id="matplotlib.axis_5">
    <g id="xtick_9"/>
    <g id="xtick_10"/>
    <g id="xtick_11"/>
    <g id="xtick_12"/>
    <g id="text_19">
     <!-- (c) -->
     <g style="fill: #262626" transform="translate(309.14174 828.208892) scale(0.18 -0.18)">
      <use xlink:href="#ArialMT-28"/>
      <use xlink:href="#ArialMT-63" x="33.300781"/>
      <use xlink:href="#ArialMT-29" x="83.300781"/>
     </g>
    </g>
   </g>
   <g id="matplotlib.axis_6">
    <g id="ytick_52">
     <g id="text_20">
      <!-- $\mathdefault{10^{2}}$ -->
      <g style="fill: #262626" transform="translate(47.639875 725.159952) scale(0.165 -0.165)">
       <use xlink:href="#ArialMT-31" transform="translate(0 0.99375)"/>
       <use xlink:href="#ArialMT-30" transform="translate(55.615234 0.99375)"/>
       <use xlink:href="#ArialMT-32" transform="translate(112.972813 70.6875) scale(0.7)"/>
      </g>
     </g>
    </g>
    <g id="ytick_53"/>
    <g id="ytick_54"/>
    <g id="ytick_55"/>
    <g id="ytick_56"/>
    <g id="ytick_57"/>
    <g id="ytick_58"/>
    <g id="ytick_59"/>
    <g id="ytick_60"/>
    <g id="ytick_61"/>
    <g id="ytick_62"/>
    <g id="ytick_63"/>
    <g id="ytick_64"/>
    <g id="text_21">
     <!-- Power Efficiency -->
     <g style="fill: #262626" transform="translate(20.303438 684.547884) rotate(-90) scale(0.18 -0.18)">
      <defs>
       <path id="ArialMT-50" d="M 494 0 
L 494 4581 
L 2222 4581 
Q 2678 4581 2919 4538 
Q 3256 4481 3484 4323 
Q 3713 4166 3852 3881 
Q 3991 3597 3991 3256 
Q 3991 2672 3619 2267 
Q 3247 1863 2275 1863 
L 1100 1863 
L 1100 0 
L 494 0 
z
M 1100 2403 
L 2284 2403 
Q 2872 2403 3119 2622 
Q 3366 2841 3366 3238 
Q 3366 3525 3220 3729 
Q 3075 3934 2838 4000 
Q 2684 4041 2272 4041 
L 1100 4041 
L 1100 2403 
z
" transform="scale(0.015625)"/>
       <path id="ArialMT-6f" d="M 213 1659 
Q 213 2581 725 3025 
Q 1153 3394 1769 3394 
Q 2453 3394 2887 2945 
Q 3322 2497 3322 1706 
Q 3322 1066 3130 698 
Q 2938 331 2570 128 
Q 2203 -75 1769 -75 
Q 1072 -75 642 372 
Q 213 819 213 1659 
z
M 791 1659 
Q 791 1022 1069 705 
Q 1347 388 1769 388 
Q 2188 388 2466 706 
Q 2744 1025 2744 1678 
Q 2744 2294 2464 2611 
Q 2184 2928 1769 2928 
Q 1347 2928 1069 2612 
Q 791 2297 791 1659 
z
" transform="scale(0.015625)"/>
       <path id="ArialMT-77" d="M 1034 0 
L 19 3319 
L 600 3319 
L 1128 1403 
L 1325 691 
Q 1338 744 1497 1375 
L 2025 3319 
L 2603 3319 
L 3100 1394 
L 3266 759 
L 3456 1400 
L 4025 3319 
L 4572 3319 
L 3534 0 
L 2950 0 
L 2422 1988 
L 2294 2553 
L 1622 0 
L 1034 0 
z
" transform="scale(0.015625)"/>
      </defs>
      <use xlink:href="#ArialMT-50"/>
      <use xlink:href="#ArialMT-6f" x="66.699219"/>
      <use xlink:href="#ArialMT-77" x="122.314453"/>
      <use xlink:href="#ArialMT-65" x="194.53125"/>
      <use xlink:href="#ArialMT-72" x="250.146484"/>
      <use xlink:href="#ArialMT-20" x="283.447266"/>
      <use xlink:href="#ArialMT-45" x="311.230469"/>
      <use xlink:href="#ArialMT-66" x="377.929688"/>
      <use xlink:href="#ArialMT-66" x="403.962891"/>
      <use xlink:href="#ArialMT-69" x="431.746094"/>
      <use xlink:href="#ArialMT-63" x="453.962891"/>
      <use xlink:href="#ArialMT-69" x="503.962891"/>
      <use xlink:href="#ArialMT-65" x="526.179688"/>
      <use xlink:href="#ArialMT-6e" x="581.794922"/>
      <use xlink:href="#ArialMT-63" x="637.410156"/>
      <use xlink:href="#ArialMT-79" x="687.410156"/>
     </g>
     <!--  [$\mu$W/MHz] -->
     <g style="fill: #262626" transform="translate(39.859875 660.932727) rotate(-90) scale(0.18 -0.18)">
      <defs>
       <path id="DejaVuSans-Oblique-3bc" d="M -84 -1331 
L 856 3500 
L 1434 3500 
L 1009 1322 
Q 997 1256 987 1175 
Q 978 1094 978 1013 
Q 978 722 1161 565 
Q 1344 409 1684 409 
Q 2147 409 2431 671 
Q 2716 934 2816 1459 
L 3213 3500 
L 3788 3500 
L 3266 809 
Q 3253 750 3248 706 
Q 3244 663 3244 628 
Q 3244 531 3283 486 
Q 3322 441 3406 441 
Q 3438 441 3492 456 
Q 3547 472 3647 513 
L 3559 50 
Q 3422 -19 3297 -55 
Q 3172 -91 3053 -91 
Q 2847 -91 2730 40 
Q 2613 172 2613 403 
Q 2438 153 2195 31 
Q 1953 -91 1625 -91 
Q 1334 -91 1117 43 
Q 900 178 831 397 
L 494 -1331 
L -84 -1331 
z
" transform="scale(0.015625)"/>
       <path id="ArialMT-57" d="M 1294 0 
L 78 4581 
L 700 4581 
L 1397 1578 
Q 1509 1106 1591 641 
Q 1766 1375 1797 1488 
L 2669 4581 
L 3400 4581 
L 4056 2263 
Q 4303 1400 4413 641 
Q 4500 1075 4641 1638 
L 5359 4581 
L 5969 4581 
L 4713 0 
L 4128 0 
L 3163 3491 
Q 3041 3928 3019 4028 
Q 2947 3713 2884 3491 
L 1913 0 
L 1294 0 
z
" transform="scale(0.015625)"/>
       <path id="ArialMT-48" d="M 513 0 
L 513 4581 
L 1119 4581 
L 1119 2700 
L 3500 2700 
L 3500 4581 
L 4106 4581 
L 4106 0 
L 3500 0 
L 3500 2159 
L 1119 2159 
L 1119 0 
L 513 0 
z
" transform="scale(0.015625)"/>
       <path id="ArialMT-7a" d="M 125 0 
L 125 456 
L 2238 2881 
Q 1878 2863 1603 2863 
L 250 2863 
L 250 3319 
L 2963 3319 
L 2963 2947 
L 1166 841 
L 819 456 
Q 1197 484 1528 484 
L 3063 484 
L 3063 0 
L 125 0 
z
" transform="scale(0.015625)"/>
      </defs>
      <use xlink:href="#ArialMT-20" transform="translate(0 0.203125)"/>
      <use xlink:href="#ArialMT-5b" transform="translate(27.783203 0.203125)"/>
      <use xlink:href="#DejaVuSans-Oblique-3bc" transform="translate(55.566406 0.203125)"/>
      <use xlink:href="#ArialMT-57" transform="translate(119.189453 0.203125)"/>
      <use xlink:href="#ArialMT-2f" transform="translate(213.574219 0.203125)"/>
      <use xlink:href="#ArialMT-4d" transform="translate(241.357422 0.203125)"/>
      <use xlink:href="#ArialMT-48" transform="translate(324.658203 0.203125)"/>
      <use xlink:href="#ArialMT-7a" transform="translate(396.875 0.203125)"/>
      <use xlink:href="#ArialMT-5d" transform="translate(446.875 0.203125)"/>
     </g>
    </g>
   </g>
   <g id="patch_21">
    <path d="M 97.72439 283705.351713 
L 191.160511 283705.351713 
L 191.160511 480.77652 
L 97.72439 480.77652 
z
" clip-path="url(#p69aeab2230)" style="fill: #472345; stroke: #ffffff; stroke-width: 1.5; stroke-linejoin: miter"/>
   </g>
   <g id="patch_22">
    <path d="M 214.519541 283705.351713 
L 307.955662 283705.351713 
L 307.955662 495.521608 
L 214.519541 495.521608 
z
" clip-path="url(#p69aeab2230)" style="fill: #902b5c; stroke: #ffffff; stroke-width: 1.5; stroke-linejoin: miter"/>
   </g>
   <g id="patch_23">
    <path d="M 331.314693 283705.351713 
L 424.750814 283705.351713 
L 424.750814 454.162066 
L 331.314693 454.162066 
z
" clip-path="url(#p69aeab2230)" style="fill: #d35454; stroke: #ffffff; stroke-width: 1.5; stroke-linejoin: miter"/>
   </g>
   <g id="patch_24">
    <path d="M 448.109844 283705.351713 
L 541.545965 283705.351713 
L 541.545965 782.203388 
L 448.109844 782.203388 
z
" clip-path="url(#p69aeab2230)" style="fill: #e5a283; stroke: #ffffff; stroke-width: 1.5; stroke-linejoin: miter"/>
   </g>
   <g id="line2d_3">
    <path clip-path="url(#p69aeab2230)" style="fill: none; stroke: #1a1a1a; stroke-width: 2.25; stroke-linecap: round"/>
   </g>
   <g id="patch_25">
    <path d="M 86.044875 798.605455 
L 86.044875 437.76 
" style="fill: none; stroke: #262626; stroke-width: 1.875; stroke-linejoin: miter; stroke-linecap: square"/>
   </g>
   <g id="patch_26">
    <path d="M 553.22548 798.605455 
L 553.22548 437.76 
" style="fill: none; stroke: #262626; stroke-width: 1.875; stroke-linejoin: miter; stroke-linecap: square"/>
   </g>
   <g id="patch_27">
    <path d="M 86.044875 798.605455 
L 553.22548 798.605455 
" style="fill: none; stroke: #262626; stroke-width: 1.875; stroke-linejoin: miter; stroke-linecap: square"/>
   </g>
   <g id="patch_28">
    <path d="M 86.044875 437.76 
L 553.22548 437.76 
" style="fill: none; stroke: #262626; stroke-width: 1.875; stroke-linejoin: miter; stroke-linecap: square"/>
   </g>
   <g id="text_22">
    <!-- 684 -->
    <g style="fill: #262626" transform="translate(131.096201 477.59652) scale(0.16 -0.16)">
     <use xlink:href="#ArialMT-36"/>
     <use xlink:href="#ArialMT-38" x="55.615234"/>
     <use xlink:href="#ArialMT-34" x="111.230469"/>
    </g>
   </g>
   <g id="text_23">
    <!-- 607 -->
    <g style="fill: #262626" transform="translate(247.891352 492.341608) scale(0.16 -0.16)">
     <use xlink:href="#ArialMT-36"/>
     <use xlink:href="#ArialMT-30" x="55.615234"/>
     <use xlink:href="#ArialMT-37" x="111.230469"/>
    </g>
   </g>
   <g id="text_24">
    <!-- 850 -->
    <g style="fill: #262626" transform="translate(364.686503 450.982066) scale(0.16 -0.16)">
     <use xlink:href="#ArialMT-38"/>
     <use xlink:href="#ArialMT-35" x="55.615234"/>
     <use xlink:href="#ArialMT-30" x="111.230469"/>
    </g>
   </g>
   <g id="text_25">
    <!-- 58.6 -->
    <g style="fill: #262626" transform="translate(479.259154 779.023388) scale(0.16 -0.16)">
     <use xlink:href="#ArialMT-35"/>
     <use xlink:href="#ArialMT-38" x="55.615234"/>
     <use xlink:href="#ArialMT-2e" x="111.230469"/>
     <use xlink:href="#ArialMT-36" x="139.013672"/>
    </g>
   </g>
  </g>
  <g id="axes_4">
   <g id="patch_29">
    <path d="M 650.740875 798.605455 
L 1117.92148 798.605455 
L 1117.92148 437.76 
L 650.740875 437.76 
z
" style="fill: #ffffff"/>
   </g>
   <g id="matplotlib.axis_7">
    <g id="xtick_13"/>
    <g id="xtick_14"/>
    <g id="xtick_15"/>
    <g id="xtick_16"/>
    <g id="text_26">
     <!-- (d) -->
     <g style="fill: #262626" transform="translate(873.332896 828.208892) scale(0.18 -0.18)">
      <defs>
       <path id="ArialMT-64" d="M 2575 0 
L 2575 419 
Q 2259 -75 1647 -75 
Q 1250 -75 917 144 
Q 584 363 401 755 
Q 219 1147 219 1656 
Q 219 2153 384 2558 
Q 550 2963 881 3178 
Q 1213 3394 1622 3394 
Q 1922 3394 2156 3267 
Q 2391 3141 2538 2938 
L 2538 4581 
L 3097 4581 
L 3097 0 
L 2575 0 
z
M 797 1656 
Q 797 1019 1065 703 
Q 1334 388 1700 388 
Q 2069 388 2326 689 
Q 2584 991 2584 1609 
Q 2584 2291 2321 2609 
Q 2059 2928 1675 2928 
Q 1300 2928 1048 2622 
Q 797 2316 797 1656 
z
" transform="scale(0.015625)"/>
      </defs>
      <use xlink:href="#ArialMT-28"/>
      <use xlink:href="#ArialMT-64" x="33.300781"/>
      <use xlink:href="#ArialMT-29" x="88.916016"/>
     </g>
    </g>
   </g>
   <g id="matplotlib.axis_8">
    <g id="ytick_65">
     <g id="text_27">
      <!-- $\mathdefault{10^{0}}$ -->
      <g style="fill: #262626" transform="translate(612.335875 704.788965) scale(0.165 -0.165)">
       <use xlink:href="#ArialMT-31" transform="translate(0 0.99375)"/>
       <use xlink:href="#ArialMT-30" transform="translate(55.615234 0.99375)"/>
       <use xlink:href="#ArialMT-30" transform="translate(112.972813 70.6875) scale(0.7)"/>
      </g>
     </g>
    </g>
    <g id="ytick_66">
     <g id="text_28">
      <!-- $\mathdefault{10^{1}}$ -->
      <g style="fill: #262626" transform="translate(612.335875 584.145263) scale(0.165 -0.165)">
       <use xlink:href="#ArialMT-31" transform="translate(0 0.99375)"/>
       <use xlink:href="#ArialMT-30" transform="translate(55.615234 0.99375)"/>
       <use xlink:href="#ArialMT-31" transform="translate(112.972813 70.6875) scale(0.7)"/>
      </g>
     </g>
    </g>
    <g id="ytick_67">
     <g id="text_29">
      <!-- $\mathdefault{10^{2}}$ -->
      <g style="fill: #262626" transform="translate(612.335875 463.501561) scale(0.165 -0.165)">
       <use xlink:href="#ArialMT-31" transform="translate(0 0.99375)"/>
       <use xlink:href="#ArialMT-30" transform="translate(55.615234 0.99375)"/>
       <use xlink:href="#ArialMT-32" transform="translate(112.972813 70.6875) scale(0.7)"/>
      </g>
     </g>
    </g>
    <g id="ytick_68"/>
    <g id="ytick_69"/>
    <g id="ytick_70"/>
    <g id="ytick_71"/>
    <g id="ytick_72"/>
    <g id="ytick_73"/>
    <g id="ytick_74"/>
    <g id="ytick_75"/>
    <g id="ytick_76"/>
    <g id="ytick_77"/>
    <g id="ytick_78"/>
    <g id="ytick_79"/>
    <g id="ytick_80"/>
    <g id="ytick_81"/>
    <g id="ytick_82"/>
    <g id="ytick_83"/>
    <g id="ytick_84"/>
    <g id="ytick_85"/>
    <g id="ytick_86"/>
    <g id="ytick_87"/>
    <g id="ytick_88"/>
    <g id="ytick_89"/>
    <g id="ytick_90"/>
    <g id="ytick_91"/>
    <g id="text_30">
     <!-- Energy per Inference -->
     <g style="fill: #262626" transform="translate(585.245813 702.225852) rotate(-90) scale(0.18 -0.18)">
      <defs>
       <path id="ArialMT-67" d="M 319 -275 
L 866 -356 
Q 900 -609 1056 -725 
Q 1266 -881 1628 -881 
Q 2019 -881 2231 -725 
Q 2444 -569 2519 -288 
Q 2563 -116 2559 434 
Q 2191 0 1641 0 
Q 956 0 581 494 
Q 206 988 206 1678 
Q 206 2153 378 2554 
Q 550 2956 876 3175 
Q 1203 3394 1644 3394 
Q 2231 3394 2613 2919 
L 2613 3319 
L 3131 3319 
L 3131 450 
Q 3131 -325 2973 -648 
Q 2816 -972 2473 -1159 
Q 2131 -1347 1631 -1347 
Q 1038 -1347 672 -1080 
Q 306 -813 319 -275 
z
M 784 1719 
Q 784 1066 1043 766 
Q 1303 466 1694 466 
Q 2081 466 2343 764 
Q 2606 1063 2606 1700 
Q 2606 2309 2336 2618 
Q 2066 2928 1684 2928 
Q 1309 2928 1046 2623 
Q 784 2319 784 1719 
z
" transform="scale(0.015625)"/>
       <path id="ArialMT-70" d="M 422 -1272 
L 422 3319 
L 934 3319 
L 934 2888 
Q 1116 3141 1344 3267 
Q 1572 3394 1897 3394 
Q 2322 3394 2647 3175 
Q 2972 2956 3137 2557 
Q 3303 2159 3303 1684 
Q 3303 1175 3120 767 
Q 2938 359 2589 142 
Q 2241 -75 1856 -75 
Q 1575 -75 1351 44 
Q 1128 163 984 344 
L 984 -1272 
L 422 -1272 
z
M 931 1641 
Q 931 1000 1190 694 
Q 1450 388 1819 388 
Q 2194 388 2461 705 
Q 2728 1022 2728 1688 
Q 2728 2322 2467 2637 
Q 2206 2953 1844 2953 
Q 1484 2953 1207 2617 
Q 931 2281 931 1641 
z
" transform="scale(0.015625)"/>
      </defs>
      <use xlink:href="#ArialMT-45"/>
      <use xlink:href="#ArialMT-6e" x="66.699219"/>
      <use xlink:href="#ArialMT-65" x="122.314453"/>
      <use xlink:href="#ArialMT-72" x="177.929688"/>
      <use xlink:href="#ArialMT-67" x="211.230469"/>
      <use xlink:href="#ArialMT-79" x="266.845703"/>
      <use xlink:href="#ArialMT-20" x="316.845703"/>
      <use xlink:href="#ArialMT-70" x="344.628906"/>
      <use xlink:href="#ArialMT-65" x="400.244141"/>
      <use xlink:href="#ArialMT-72" x="455.859375"/>
      <use xlink:href="#ArialMT-20" x="489.160156"/>
      <use xlink:href="#ArialMT-49" x="516.943359"/>
      <use xlink:href="#ArialMT-6e" x="544.726562"/>
      <use xlink:href="#ArialMT-66" x="600.341797"/>
      <use xlink:href="#ArialMT-65" x="628.125"/>
      <use xlink:href="#ArialMT-72" x="683.740234"/>
      <use xlink:href="#ArialMT-65" x="717.041016"/>
      <use xlink:href="#ArialMT-6e" x="772.65625"/>
      <use xlink:href="#ArialMT-63" x="828.271484"/>
      <use xlink:href="#ArialMT-65" x="878.271484"/>
     </g>
     <!-- [mJ/Inf.] -->
     <g style="fill: #262626" transform="translate(604.758375 650.186165) rotate(-90) scale(0.18 -0.18)">
      <defs>
       <path id="ArialMT-4a" d="M 184 1300 
L 731 1375 
Q 753 850 928 656 
Q 1103 463 1413 463 
Q 1641 463 1806 567 
Q 1972 672 2034 851 
Q 2097 1031 2097 1425 
L 2097 4581 
L 2703 4581 
L 2703 1459 
Q 2703 884 2564 568 
Q 2425 253 2123 87 
Q 1822 -78 1416 -78 
Q 813 -78 492 269 
Q 172 616 184 1300 
z
" transform="scale(0.015625)"/>
      </defs>
      <use xlink:href="#ArialMT-5b"/>
      <use xlink:href="#ArialMT-6d" x="27.783203"/>
      <use xlink:href="#ArialMT-4a" x="111.083984"/>
      <use xlink:href="#ArialMT-2f" x="161.083984"/>
      <use xlink:href="#ArialMT-49" x="188.867188"/>
      <use xlink:href="#ArialMT-6e" x="216.650391"/>
      <use xlink:href="#ArialMT-66" x="272.265625"/>
      <use xlink:href="#ArialMT-2e" x="300.048828"/>
      <use xlink:href="#ArialMT-5d" x="327.832031"/>
     </g>
    </g>
   </g>
   <g id="patch_30">
    <path d="M 662.42039 121339.983155 
L 755.856511 121339.983155 
L 755.856511 782.203388 
L 662.42039 782.203388 
z
" clip-path="url(#pb02f9de1eb)" style="fill: #472345; stroke: #ffffff; stroke-width: 1.5; stroke-linejoin: miter"/>
   </g>
   <g id="patch_31">
    <path d="M 779.215541 121339.983155 
L 872.651662 121339.983155 
L 872.651662 500.696444 
L 779.215541 500.696444 
z
" clip-path="url(#pb02f9de1eb)" style="fill: #902b5c; stroke: #ffffff; stroke-width: 1.5; stroke-linejoin: miter"/>
   </g>
   <g id="patch_32">
    <path d="M 896.010693 121339.983155 
L 989.446814 121339.983155 
L 989.446814 454.162066 
L 896.010693 454.162066 
z
" clip-path="url(#pb02f9de1eb)" style="fill: #d35454; stroke: #ffffff; stroke-width: 1.5; stroke-linejoin: miter"/>
   </g>
   <g id="patch_33">
    <path d="M 1012.805844 121339.983155 
L 1106.241965 121339.983155 
L 1106.241965 601.708123 
L 1012.805844 601.708123 
z
" clip-path="url(#pb02f9de1eb)" style="fill: #e5a283; stroke: #ffffff; stroke-width: 1.5; stroke-linejoin: miter"/>
   </g>
   <g id="line2d_4">
    <path clip-path="url(#pb02f9de1eb)" style="fill: none; stroke: #1a1a1a; stroke-width: 2.25; stroke-linecap: round"/>
   </g>
   <g id="patch_34">
    <path d="M 650.740875 798.605455 
L 650.740875 437.76 
" style="fill: none; stroke: #262626; stroke-width: 1.875; stroke-linejoin: miter; stroke-linecap: square"/>
   </g>
   <g id="patch_35">
    <path d="M 1117.92148 798.605455 
L 1117.92148 437.76 
" style="fill: none; stroke: #262626; stroke-width: 1.875; stroke-linejoin: miter; stroke-linecap: square"/>
   </g>
   <g id="patch_36">
    <path d="M 650.740875 798.605455 
L 1117.92148 798.605455 
" style="fill: none; stroke: #262626; stroke-width: 1.875; stroke-linejoin: miter; stroke-linecap: square"/>
   </g>
   <g id="patch_37">
    <path d="M 650.740875 437.76 
L 1117.92148 437.76 
" style="fill: none; stroke: #262626; stroke-width: 1.875; stroke-linejoin: miter; stroke-linecap: square"/>
   </g>
   <g id="text_31">
    <!-- 0.19 -->
    <g style="fill: #262626" transform="translate(693.569701 779.023388) scale(0.16 -0.16)">
     <use xlink:href="#ArialMT-30"/>
     <use xlink:href="#ArialMT-2e" x="55.615234"/>
     <use xlink:href="#ArialMT-31" x="83.398438"/>
     <use xlink:href="#ArialMT-39" x="139.013672"/>
    </g>
   </g>
   <g id="text_32">
    <!-- 41.8 -->
    <g style="fill: #262626" transform="translate(810.364852 497.516444) scale(0.16 -0.16)">
     <use xlink:href="#ArialMT-34"/>
     <use xlink:href="#ArialMT-31" x="55.615234"/>
     <use xlink:href="#ArialMT-2e" x="111.230469"/>
     <use xlink:href="#ArialMT-38" x="139.013672"/>
    </g>
   </g>
   <g id="text_33">
    <!-- 102 -->
    <g style="fill: #262626" transform="translate(929.382503 450.982066) scale(0.16 -0.16)">
     <use xlink:href="#ArialMT-31"/>
     <use xlink:href="#ArialMT-30" x="55.615234"/>
     <use xlink:href="#ArialMT-32" x="111.230469"/>
    </g>
   </g>
   <g id="text_34">
    <!-- 6.08 -->
    <g style="fill: #262626" transform="translate(1043.955154 598.528123) scale(0.16 -0.16)">
     <use xlink:href="#ArialMT-36"/>
     <use xlink:href="#ArialMT-2e" x="55.615234"/>
     <use xlink:href="#ArialMT-30" x="83.398438"/>
     <use xlink:href="#ArialMT-38" x="139.013672"/>
    </g>
   </g>
  </g>
  <g id="legend_1">
   <g id="patch_38">
    <path d="M 79.85648 924.834455 
L 1046.86648 924.834455 
Q 1053.26648 924.834455 1053.26648 918.434455 
L 1053.26648 876.369455 
Q 1053.26648 869.969455 1046.86648 869.969455 
L 79.85648 869.969455 
Q 73.45648 869.969455 73.45648 876.369455 
L 73.45648 918.434455 
Q 73.45648 924.834455 79.85648 924.834455 
z
" style="fill: #4c4c4c; opacity: 0.5; stroke: #4c4c4c; stroke-width: 1.5; stroke-linejoin: miter"/>
   </g>
   <g id="patch_39">
    <path d="M 77.85648 922.834455 
L 1044.86648 922.834455 
Q 1051.26648 922.834455 1051.26648 916.434455 
L 1051.26648 874.369455 
Q 1051.26648 867.969455 1044.86648 867.969455 
L 77.85648 867.969455 
Q 71.45648 867.969455 71.45648 874.369455 
L 71.45648 916.434455 
Q 71.45648 922.834455 77.85648 922.834455 
z
" style="fill: #ffffff; stroke: #cccccc; stroke-width: 1.5; stroke-linejoin: miter"/>
   </g>
   <g id="patch_40">
    <path d="M 84.25648 903.674455 
L 148.25648 903.674455 
L 148.25648 881.274455 
L 84.25648 881.274455 
z
" style="fill: #472345; stroke: #ffffff; stroke-width: 1.5; stroke-linejoin: miter"/>
   </g>
   <g id="text_35">
    <!-- MAX78000 -->
    <g style="fill: #262626" transform="translate(173.85648 903.674455) scale(0.32 -0.32)">
     <defs>
      <path id="ArialMT-58" d="M 28 0 
L 1800 2388 
L 238 4581 
L 959 4581 
L 1791 3406 
Q 2050 3041 2159 2844 
Q 2313 3094 2522 3366 
L 3444 4581 
L 4103 4581 
L 2494 2422 
L 4228 0 
L 3478 0 
L 2325 1634 
Q 2228 1775 2125 1941 
Q 1972 1691 1906 1597 
L 756 0 
L 28 0 
z
" transform="scale(0.015625)"/>
     </defs>
     <use xlink:href="#ArialMT-4d"/>
     <use xlink:href="#ArialMT-41" x="83.300781"/>
     <use xlink:href="#ArialMT-58" x="150"/>
     <use xlink:href="#ArialMT-37" x="216.699219"/>
     <use xlink:href="#ArialMT-38" x="272.314453"/>
     <use xlink:href="#ArialMT-30" x="327.929688"/>
     <use xlink:href="#ArialMT-30" x="383.544922"/>
     <use xlink:href="#ArialMT-30" x="439.160156"/>
    </g>
   </g>
   <g id="patch_41">
    <path d="M 396.17648 903.674455 
L 460.17648 903.674455 
L 460.17648 881.274455 
L 396.17648 881.274455 
z
" style="fill: #902b5c; stroke: #ffffff; stroke-width: 1.5; stroke-linejoin: miter"/>
   </g>
   <g id="text_36">
    <!-- H7A3 -->
    <g style="fill: #262626" transform="translate(485.77648 903.674455) scale(0.32 -0.32)">
     <use xlink:href="#ArialMT-48"/>
     <use xlink:href="#ArialMT-37" x="72.216797"/>
     <use xlink:href="#ArialMT-41" x="127.832031"/>
     <use xlink:href="#ArialMT-33" x="194.53125"/>
    </g>
   </g>
   <g id="patch_42">
    <path d="M 629.82148 903.674455 
L 693.82148 903.674455 
L 693.82148 881.274455 
L 629.82148 881.274455 
z
" style="fill: #d35454; stroke: #ffffff; stroke-width: 1.5; stroke-linejoin: miter"/>
   </g>
   <g id="text_37">
    <!-- L4R9 -->
    <g style="fill: #262626" transform="translate(719.42148 903.674455) scale(0.32 -0.32)">
     <defs>
      <path id="ArialMT-52" d="M 503 0 
L 503 4581 
L 2534 4581 
Q 3147 4581 3465 4457 
Q 3784 4334 3975 4021 
Q 4166 3709 4166 3331 
Q 4166 2844 3850 2509 
Q 3534 2175 2875 2084 
Q 3116 1969 3241 1856 
Q 3506 1613 3744 1247 
L 4541 0 
L 3778 0 
L 3172 953 
Q 2906 1366 2734 1584 
Q 2563 1803 2427 1890 
Q 2291 1978 2150 2013 
Q 2047 2034 1813 2034 
L 1109 2034 
L 1109 0 
L 503 0 
z
M 1109 2559 
L 2413 2559 
Q 2828 2559 3062 2645 
Q 3297 2731 3419 2920 
Q 3541 3109 3541 3331 
Q 3541 3656 3305 3865 
Q 3069 4075 2559 4075 
L 1109 4075 
L 1109 2559 
z
" transform="scale(0.015625)"/>
     </defs>
     <use xlink:href="#ArialMT-4c"/>
     <use xlink:href="#ArialMT-34" x="55.615234"/>
     <use xlink:href="#ArialMT-52" x="111.230469"/>
     <use xlink:href="#ArialMT-39" x="183.447266"/>
    </g>
   </g>
   <g id="patch_43">
    <path d="M 859.91648 903.674455 
L 923.91648 903.674455 
L 923.91648 881.274455 
L 859.91648 881.274455 
z
" style="fill: #e5a283; stroke: #ffffff; stroke-width: 1.5; stroke-linejoin: miter"/>
   </g>
   <g id="text_38">
    <!-- Apollo -->
    <g style="fill: #262626" transform="translate(949.51648 903.674455) scale(0.32 -0.32)">
     <use xlink:href="#ArialMT-41"/>
     <use xlink:href="#ArialMT-70" x="66.699219"/>
     <use xlink:href="#ArialMT-6f" x="122.314453"/>
     <use xlink:href="#ArialMT-6c" x="177.929688"/>
     <use xlink:href="#ArialMT-6c" x="200.146484"/>
     <use xlink:href="#ArialMT-6f" x="222.363281"/>
    </g>
   </g>
  </g>
 </g>
 <defs>
  <clipPath id="p4318dedb98">
   <rect x="86.044875" y="7.2" width="467.180605" height="360.845455"/>
  </clipPath>
  <clipPath id="p7505e4e684">
   <rect x="650.740875" y="7.2" width="467.180605" height="360.845455"/>
  </clipPath>
  <clipPath id="p69aeab2230">
   <rect x="86.044875" y="437.76" width="467.180605" height="360.845455"/>
  </clipPath>
  <clipPath id="pb02f9de1eb">
   <rect x="650.740875" y="437.76" width="467.180605" height="360.845455"/>
  </clipPath>
 </defs>
</svg>
